<svg width="88" height="88" viewBox="0 0 88 88" fill="none" xmlns="http://www.w3.org/2000/svg">
<path d="M76.2995 73.6227C72.1908 78.1501 67.181 81.768 61.5918 84.2439C56.0027 86.7199 49.9577 87.9993 43.845 88C37.7323 88.0007 31.687 86.7227 26.0973 84.248C20.5076 81.7732 15.497 78.1565 11.3872 73.6301L22.7457 63.3101C25.417 66.2523 28.6739 68.6031 32.3073 70.2117C35.9406 71.8203 39.87 72.651 43.8433 72.6505C47.8165 72.6501 51.7457 71.8185 55.3787 70.2091C59.0116 68.5997 62.268 66.2481 64.9387 63.3053L76.2995 73.6227Z" fill="url(#paint0_linear_130_1567)"/>
<path fill-rule="evenodd" clip-rule="evenodd" d="M84.344 27.0729C86.5472 32.3937 87.6811 40.8375 87.6811 51.2131H43.8406L0 51.2131C0 40.8375 1.13397 32.3937 3.33716 27.0729C5.54036 21.752 8.76963 16.9174 12.8406 12.845C16.9116 8.77267 21.7445 5.54228 27.0635 3.33832C32.3825 1.13436 38.0833 0 43.8406 0C49.5978 0 55.2986 1.13436 60.6176 3.33832C65.9366 5.54227 70.7695 8.77266 74.8405 12.845C78.9115 16.9174 82.1408 21.752 84.344 27.0729ZM43.8407 15.0033C25.9584 15.0033 17.9306 29.0448 15.8635 36.4983H71.8179C69.7509 29.0448 61.7231 15.0033 43.8407 15.0033Z" fill="#FFBC05"/>
<defs>
<linearGradient id="paint0_linear_130_1567" x1="73.8517" y1="56.3084" x2="14.613" y2="88.5789" gradientUnits="userSpaceOnUse">
<stop stop-color="#6481DC"/>
<stop offset="1" stop-color="#4962BD"/>
</linearGradient>
</defs>
</svg>
